<svg id="Layer_1" data-name="Layer 1" xmlns="http://www.w3.org/2000/svg" xmlns:xlink="http://www.w3.org/1999/xlink" viewBox="0 0 1500 1500"><defs><style>.cls-1{fill:url(#linear-gradient);}.cls-2{fill:url(#linear-gradient-2);}.cls-3{fill:url(#linear-gradient-3);}.cls-4{fill:#1b6991;}.cls-5{fill:#fff;}</style><linearGradient id="linear-gradient" x1="235.6" y1="1015.89" x2="867.37" y2="1015.89" gradientUnits="userSpaceOnUse"><stop offset="0" stop-color="#207aa8"/><stop offset="0.22" stop-color="#207aa8"/><stop offset="0.46" stop-color="#3bbdd0"/><stop offset="0.68" stop-color="#3bbdd0"/><stop offset="0.99" stop-color="#1674a4"/></linearGradient><linearGradient id="linear-gradient-2" x1="42.68" y1="681.37" x2="856.68" y2="681.37" xlink:href="#linear-gradient"/><linearGradient id="linear-gradient-3" x1="573.14" y1="885.07" x2="866.79" y2="885.07" xlink:href="#linear-gradient"/></defs><path class="cls-1" d="M867.23,1097.27c0-29.25.38-58.53-.13-87.78-.44-25.49-.88-25.62-26-25.66-88.4-.15-176.81-.74-265.18.13-21.9.21-37.43-6.27-49.91-24.42-16.54-24.07-35.31-46.6-52.33-70.34-8.39-11.73-18.1-17.7-32.95-16.92-19.68,1-39.41.31-59.1.36-12.53,0-22.66-2.57-29.63-15.28-15.74-28.77-40.1-38.57-70.7-30.43-25.85,6.87-45.39,30.53-45.67,55.27C235.27,914,253,939,281.48,947c25.74,7.25,53.11-4.54,69.1-28.83,4.06-6.18,10.05-15,15.74-15.51,23.69-2,47.6-1.89,71.37-1,5.32.21,11.52,6,15.34,10.82,19.74,24.68,39.28,49.52,58,75,11.46,15.59,24.89,24.08,45.08,23.2,26.84-1.18,53.76-.36,80.64-.27,34,.12,68.09.14,102.14.69,13.82.21,18.76,6.54,10.71,19.48-1.55,2.5-2.48,5.46-4.16,7.88-38.56,55.23-38.56,54.79-107.2,55.17-15.87.08-25.6-3.49-34.11-18.6-15.86-28.1-52.28-36.25-80-21.06-27,14.78-39.88,47.12-29.1,73,15,35.83,42.77,50,76.71,39.74,16.43-5,27.59-15.2,35.87-30,7.86-14,24.57-19.1,42.32-14.71,16.17,4,11.79,17.13,12.3,27.76a336.91,336.91,0,0,1,.13,37.6c-.95,14.46,4.37,20.32,19.29,20.19q83.34-.75,166.71,0c14.09.14,19-5.24,18.75-19-.61-30.45-.19-60.91-.19-91.36ZM296,919c-17.44-.09-30-14.44-29.38-33.65.57-18.62,13.75-31.29,32.2-31,16.54.28,31.29,15.79,31.29,32.89C330.09,905.1,315,919.12,296,919Zm257,222.45c-17.3.12-32.76-15.41-32.93-33.1a31.65,31.65,0,0,1,31.25-32.11c19.48-.26,34.91,13,35.07,30.22C586.52,1124.4,570.34,1141.36,552.94,1141.47Z"/><path class="cls-2" d="M845.56,759.7q-223.87-.83-447.76-.32c-17,0-28.83-4.33-39.23-18.77-25.1-34.8-52.48-67.94-78-102.47-8.43-11.41-18-15.95-31.76-15.51-19.67.61-39.42-.54-59.07.3-14.88.63-24.17-4.63-31.4-18C146.1,582.14,124.72,572.62,99.9,575c-31.06,2.92-52.66,24.82-56.61,53.59C39.53,655.88,53.38,683,76.81,694.11c26.54,12.59,61.24,8,76.77-17.8,14.42-24,33-23,54.35-22.72,9.56.12,19.14.55,28.64,0,11.83-.72,19.94,3.67,27.17,13.3,26.48,35.26,54.39,69.46,80.41,105.06,8.91,12.17,18.68,16.31,33,16.22,77.62-.42,155.23-.19,232.84-.19v-.78h9q114.66-.06,229.26-.14C865.21,787,852.52,759.72,845.56,759.7Zm-739.9-90.2C89,669.5,74.16,655.35,74,639.38c-.14-18,14.78-32.76,33.15-32.74,15.93,0,30.53,14.94,30.57,31.29C137.8,655.42,123.46,669.52,105.66,669.5Z"/><path class="cls-3" d="M847.54,870.81c-41.17.33-82.34,1-123.51.82-11.37,0-23,1.55-31.63-11.2-7.71-11.46-18.11-22.24-29.65-29.74-25.81-16.75-71.12-2.31-83.56,25-14.5,31.76-2.12,68.5,28.41,84.28,29,15,64.48,4.12,81.61-26,6.09-10.72,13.85-15.28,25.85-15.09,22.06.38,44.15.11,66.22.11v-.3q33.12,0,66.26,0c9.52,0,19.42,1.66,19.25-13.64C866.62,870.26,857.48,870.72,847.54,870.81ZM635,917.53a32.63,32.63,0,0,1-32.49-33.29c.27-17.93,15.93-32.87,33.79-32.3,16.9.56,31.88,15.95,31.78,32.63C668,902.73,653,917.69,635,917.53Z"/><path class="cls-4" d="M1144.66,292.39H924.12v1.52l-160.35,0v-1.52q-113.89,0-227.77,0V460.9q50.88-.13,101.78-.47c17.59-.12,24.3,5.93,23.94,24.05q-1.4,69.82.12,139.69c.36,17.21-5.77,23.7-22.73,23.47q-69-.89-138-.17c-12.3.13-19.78-4.28-25.77-15C460.6,606,433.42,594.91,403.69,602c-24.91,5.94-44,29.76-45,56-1.15,30.81,14.48,53.55,44.16,64.23,23.62,8.51,54.64-.57,68.34-24.91C482.08,678,496.45,676,515.3,676.05c110.52.34,221.05-.31,331.57.09,15.74.06,20.84-5.15,20.7-20.64-.55-55.5-.05-111,.08-166.57,0-26.54,1.93-28.37,28.58-28.52q13.95-.06,27.89-.16v.37H1142V978.51H924.12v229.1h204.59a151.76,151.76,0,0,0,151.75-151.76V428.2A135.8,135.8,0,0,0,1144.66,292.39ZM420.1,693.88c-16.08,0-30.51-14.25-30.81-30.48-.36-18.41,13.79-33.31,31.76-33.45,16.24-.15,31.92,15.17,32.36,31.6C453.85,678.81,438.36,693.86,420.1,693.88Z"/><path class="cls-5" d="M1909.44,620.25l-.1.12.17,0,1.34-1Zm-.43.25a.8.8,0,0,0-.12.34l.45-.47A1,1,0,0,0,1909,620.5Zm.43-.25-.1.12.17,0,1.34-1Zm-.43.25a.8.8,0,0,0-.12.34l.45-.47A1,1,0,0,0,1909,620.5Zm-19.79,9.6a2.6,2.6,0,0,1,.1.25h0a3.88,3.88,0,0,1,1.16-.87C1890.08,629.68,1889.66,629.9,1889.22,630.1Zm.1.25h-.18a11.77,11.77,0,0,1-.79,1.93c.33-.64.65-1.27,1-1.91Zm-10,6.31h0ZM1419.47-309.51a11.11,11.11,0,0,0-.33,1.51,13,13,0,0,1,.35-1.51ZM926.05,629.06l0,0v.05h0Z"/></svg>